<?xml version="1.0" standalone="no"?>
<!DOCTYPE svg PUBLIC "-//W3C//DTD SVG 20010904//EN"
 "http://www.w3.org/TR/2001/REC-SVG-20010904/DTD/svg10.dtd">
<svg version="1.0" xmlns="http://www.w3.org/2000/svg"
 width="4289.000000pt" height="2350.000000pt" viewBox="0 0 4289.000000 2350.000000"
 preserveAspectRatio="xMidYMid meet">

<g transform="translate(0.000000,2350.000000) scale(0.100000,-0.100000)"
fill="#000000" stroke="none">
<path d="M21307 23230 c-272 -32 -512 -162 -676 -365 -121 -150 -131 -173
-461 -1025 -117 -300 -452 -1161 -745 -1915 -1439 -3698 -2450 -6342 -3046
-7962 -57 -155 -104 -281 -106 -279 -4 4 -247 682 -394 1101 -72 204 -179 496
-239 650 -313 808 -1183 3108 -2330 6160 -242 642 -461 1209 -496 1284 -77
162 -193 358 -280 473 -123 164 -335 343 -513 433 -346 173 -908 201 -1298 64
-315 -111 -570 -328 -769 -655 -122 -201 -186 -344 -469 -1044 -64 -158 -199
-571 -590 -1805 -279 -880 -522 -1648 -541 -1707 l-35 -108 -1487 -2 -1487 -3
-70 -22 c-232 -74 -427 -239 -529 -448 -69 -140 -81 -200 -81 -405 0 -207 12
-263 85 -415 104 -216 290 -373 531 -447 l74 -23 1570 -3 c1728 -3 1692 -4
1938 58 663 167 1188 647 1412 1290 20 58 92 330 160 605 198 796 318 1239
481 1785 87 289 313 978 347 1059 l14 34 21 -54 c11 -30 200 -529 420 -1109
1077 -2840 1772 -4684 2052 -5445 49 -132 197 -514 330 -850 133 -335 329
-830 435 -1100 255 -649 328 -807 480 -1035 230 -344 544 -552 950 -628 132
-24 521 -24 660 2 209 38 368 102 541 217 192 129 344 295 489 534 127 208
219 417 442 995 167 435 3298 8139 3304 8132 10 -10 3134 -7706 3219 -7927
138 -363 272 -691 335 -820 217 -447 456 -714 790 -880 117 -57 229 -93 385
-122 137 -25 515 -25 655 1 262 48 465 143 672 318 225 188 426 513 616 998
36 91 140 356 232 590 92 234 259 657 372 940 113 283 224 569 248 635 61 171
406 1097 723 1940 l271 720 166 2928 c92 1610 165 2932 163 2938 -9 26 -194
-264 -287 -448 -74 -148 -84 -173 -486 -1243 -1129 -2999 -2050 -5434 -2380
-6290 -63 -162 -179 -479 -259 -705 -253 -722 -360 -1015 -368 -1007 -3 4
-100 261 -213 572 -367 1004 -437 1188 -1280 3375 -549 1424 -1157 3007 -1956
5094 -374 975 -696 1805 -716 1845 -147 293 -440 489 -788 526 -100 11 -111
11 -208 0z"/>
<path d="M2130 16515 c-159 -34 -299 -114 -416 -236 -81 -85 -117 -136 -166
-234 -102 -202 -133 -452 -82 -662 9 -37 38 -113 64 -168 83 -171 206 -295
375 -376 157 -76 130 -73 805 -77 414 -2 625 0 669 8 253 44 488 233 610 491
22 46 52 125 67 174 25 81 27 107 28 250 1 170 -8 222 -58 347 -40 99 -87 168
-176 258 -123 125 -250 193 -418 226 -106 20 -1206 19 -1302 -1z"/>
<path d="M20740 14780 c-233 -28 -440 -157 -576 -361 -280 -422 -102 -1087
354 -1319 176 -89 206 -92 902 -88 654 4 637 3 796 79 363 172 539 586 431
1009 -96 374 -376 635 -728 680 -95 12 -1078 12 -1179 0z"/>
<path d="M35371 8049 c-332 -25 -633 -107 -922 -250 -746 -370 -1227 -1057
-1345 -1920 -23 -169 -23 -509 0 -679 55 -406 188 -765 401 -1085 104 -156
185 -252 326 -390 369 -360 816 -579 1349 -662 177 -28 622 -25 820 6 509 77
899 264 1307 623 151 133 206 192 199 214 -3 11 -125 138 -270 283 l-264 264
-34 -29 c-239 -203 -322 -264 -502 -373 -258 -155 -457 -209 -801 -218 -173
-5 -216 -2 -324 16 -573 98 -1037 508 -1230 1087 -185 556 -110 1183 198 1640
234 347 607 594 1016 670 135 26 447 26 585 1 350 -64 617 -207 1021 -547 l37
-30 258 297 c141 164 264 306 273 317 15 17 12 22 -44 73 -416 378 -849 589
-1372 668 -209 31 -471 40 -682 24z"/>
<path d="M9178 7953 c-14 -32 -494 -1130 -1067 -2441 -572 -1310 -1041 -2385
-1041 -2387 0 -3 197 -4 437 -3 l438 3 248 583 249 582 1146 0 1147 -1 245
-584 244 -585 448 0 c352 0 448 3 448 13 -1 6 -479 1106 -1063 2442 l-1062
2430 -396 3 -396 2 -25 -57z m831 -1953 l408 -945 -825 -3 c-454 -1 -827 0
-829 2 -3 2 181 437 408 967 317 738 415 958 421 943 5 -10 192 -444 417 -964z"/>
<path d="M2686 6202 c-324 -983 -593 -1793 -597 -1801 -4 -9 -21 30 -43 100
-19 63 -278 868 -575 1789 l-539 1675 -462 3 c-395 2 -461 0 -458 -12 2 -8
381 -1106 843 -2440 l840 -2426 370 2 369 3 591 1727 c325 950 592 1729 595
1731 3 3 254 -724 559 -1616 305 -892 572 -1673 594 -1734 l39 -113 368 0 368
0 17 48 c8 26 388 1123 843 2437 l828 2390 -445 3 c-244 1 -446 0 -449 -2 -2
-3 -260 -800 -573 -1773 -313 -972 -572 -1776 -576 -1786 -6 -13 -186 519
-603 1782 l-594 1801 -361 0 -360 0 -589 -1788z"/>
<path d="M11850 7966 c0 -2 452 -1099 1004 -2438 l1005 -2433 378 -2 378 -3
1005 2438 1005 2437 -459 3 c-273 1 -462 -2 -465 -7 -3 -5 -330 -840 -726
-1855 -518 -1328 -723 -1843 -729 -1832 -6 8 -334 842 -731 1853 l-721 1838
-472 3 c-260 1 -472 0 -472 -2z"/>
<path d="M17452 5548 l3 -2423 1813 -3 1812 -2 0 390 0 390 -1390 0 -1390 0 0
645 0 645 1215 0 1215 0 0 385 0 385 -1215 0 -1215 0 0 620 0 620 1373 2 1372
3 3 383 2 382 -1800 0 -1800 0 2 -2422z"/>
<path d="M23820 7575 l0 -395 770 0 770 0 0 -2030 0 -2030 433 2 432 3 3 2028
2 2027 765 0 765 0 0 395 0 395 -1970 0 -1970 0 0 -395z"/>
<path d="M28660 5545 l0 -2425 1810 0 1810 0 0 390 0 390 -1385 0 -1385 0 0
645 0 645 1215 0 1215 0 0 385 0 385 -1215 0 -1215 0 0 620 0 620 1370 0 1370
0 0 385 0 385 -1795 0 -1795 0 0 -2425z"/>
<path d="M38410 5545 l0 -2425 425 0 425 0 0 1020 0 1020 1160 0 1160 0 0
-1020 0 -1020 425 0 425 0 0 2425 0 2425 -425 0 -425 0 0 -1005 0 -1005 -1160
0 -1160 0 0 1005 0 1005 -425 0 -425 0 0 -2425z"/>
<path d="M4054 1535 c-149 -32 -267 -98 -385 -215 -72 -71 -93 -101 -132 -180
-64 -128 -87 -226 -87 -359 0 -307 160 -569 425 -696 121 -59 180 -70 360 -70
148 1 166 3 240 28 121 42 219 102 305 187 91 90 151 186 193 312 29 86 31
104 31 233 1 117 -3 153 -22 219 -35 122 -94 226 -179 316 -110 117 -233 188
-393 225 -80 18 -272 18 -356 0z m267 -235 c30 -5 87 -26 128 -46 173 -85 281
-267 281 -474 0 -154 -52 -284 -154 -385 -272 -272 -732 -138 -831 242 -19 72
-19 222 0 292 48 183 195 328 368 366 76 17 138 18 208 5z"/>
<path d="M13941 1535 c-89 -20 -182 -66 -239 -119 -144 -135 -174 -375 -67
-532 71 -103 185 -159 463 -229 202 -50 281 -97 303 -177 21 -79 -19 -161 -98
-199 -37 -18 -69 -24 -143 -27 -175 -7 -297 39 -476 179 -7 6 -37 -22 -88 -81
-42 -49 -76 -94 -76 -99 0 -15 129 -108 197 -141 291 -144 639 -130 819 33
131 119 173 333 95 491 -65 132 -188 203 -479 276 -171 43 -264 87 -296 141
-9 16 -16 50 -16 82 0 71 28 113 99 150 121 61 329 22 496 -93 26 -18 48 -30
49 -28 35 45 136 193 136 198 0 10 -95 72 -156 103 -156 78 -363 106 -523 72z"/>
<path d="M19745 1536 c-143 -33 -275 -106 -381 -211 -86 -86 -146 -184 -187
-307 -29 -86 -31 -104 -31 -233 -1 -117 3 -153 22 -219 35 -122 94 -226 179
-316 153 -163 335 -240 568 -240 236 0 401 67 566 230 72 71 93 101 132 180
64 128 87 226 87 359 0 304 -155 562 -415 691 -44 21 -107 47 -140 56 -81 22
-318 28 -400 10z m271 -237 c180 -33 340 -186 389 -374 19 -74 19 -223 0 -294
-37 -141 -136 -266 -259 -327 -341 -168 -727 85 -726 476 0 155 52 285 154
385 122 120 271 165 442 134z"/>
<path d="M23045 1535 c-265 -57 -490 -271 -565 -535 -28 -97 -37 -256 -20
-357 51 -322 273 -555 589 -618 63 -13 115 -16 215 -12 186 7 320 47 468 142
131 84 118 41 118 402 l0 313 -320 0 -320 0 0 -115 0 -115 190 0 190 0 0 -140
0 -140 -40 -26 c-105 -70 -297 -103 -432 -75 -231 48 -388 257 -388 516 0 153
48 279 147 386 166 178 448 197 673 44 l80 -54 80 95 c44 52 80 99 80 103 0 8
-77 66 -131 99 -54 33 -165 72 -247 88 -91 17 -286 17 -367 -1z"/>
<path d="M25887 792 c-180 -411 -327 -751 -327 -755 0 -4 60 -7 133 -7 l134 0
76 177 75 178 354 3 353 2 59 -142 c33 -79 68 -160 78 -181 l18 -37 136 0
c125 0 136 1 131 18 -2 9 -149 349 -327 755 l-322 737 -122 0 -122 0 -327
-748z m573 130 c67 -156 120 -286 117 -288 -2 -2 -115 -3 -250 -2 l-246 3 105
245 c138 321 144 334 148 329 2 -2 59 -131 126 -287z"/>
<path d="M470 1523 c0 -5 133 -210 295 -458 l295 -450 0 -292 0 -293 130 0
130 0 0 296 0 295 291 441 c160 243 293 447 296 454 4 11 -23 14 -144 14
l-149 0 -164 -257 c-91 -142 -185 -291 -211 -331 l-47 -73 -208 330 -209 331
-152 0 c-84 0 -153 -3 -153 -7z"/>
<path d="M6802 1018 c4 -570 3 -561 74 -707 40 -81 121 -170 195 -213 91 -53
193 -80 325 -86 350 -14 579 141 660 448 15 56 18 132 21 568 l4 503 -133 -3
-133 -3 -5 -505 -5 -505 -29 -63 c-36 -78 -105 -142 -184 -173 -80 -31 -224
-31 -303 0 -72 27 -137 84 -173 151 -49 90 -55 160 -56 653 l0 447 -131 0
-130 0 3 -512z"/>
<path d="M9935 1518 c-3 -7 -4 -344 -3 -748 l3 -735 133 -3 132 -3 0 261 0
260 163 0 162 0 184 -260 184 -260 153 0 c85 0 154 2 154 4 0 3 -90 131 -200
285 -109 155 -195 281 -189 281 6 0 44 15 85 34 224 104 318 359 224 609 -30
79 -121 177 -204 217 -126 61 -144 63 -579 68 -323 3 -398 1 -402 -10z m818
-266 c79 -39 111 -80 126 -159 23 -120 -24 -214 -139 -274 -43 -23 -55 -24
-292 -27 l-248 -4 0 252 0 252 243 -3 242 -4 68 -33z"/>
<path d="M16475 1518 c-3 -7 -4 -344 -3 -748 l3 -735 523 -3 522 -2 0 120 0
120 -390 0 -390 0 0 630 0 630 -130 0 c-95 0 -132 -3 -135 -12z"/>
<path d="M28865 1518 c-3 -7 -4 -344 -3 -748 l3 -735 132 -3 133 -3 2 527 3
526 405 -524 405 -523 113 -3 112 -3 0 751 0 751 -132 -3 -133 -3 -5 -506 -5
-505 -393 508 -393 508 -120 0 c-86 0 -121 -3 -124 -12z"/>
<path d="M32690 780 l0 -750 130 0 130 0 0 315 0 315 355 0 355 0 0 -315 0
-316 133 3 132 3 0 745 0 745 -132 3 -133 3 0 -311 0 -310 -355 0 -355 0 0
310 0 310 -130 0 -130 0 0 -750z"/>
<path d="M35805 1518 c-3 -7 -4 -344 -3 -748 l3 -735 558 -3 557 -2 0 120 0
120 -425 0 -425 0 0 200 0 200 375 0 376 0 -3 118 -3 117 -372 3 -373 2 0 190
0 190 420 0 420 0 0 120 0 120 -550 0 c-431 0 -552 -3 -555 -12z"/>
<path d="M38730 781 l0 -751 130 0 130 0 0 260 0 260 167 -2 167 -3 176 -247
c96 -136 180 -252 186 -258 7 -7 66 -10 162 -8 l152 3 -200 280 c-190 266
-199 280 -178 289 146 56 231 129 286 245 32 66 36 84 40 175 5 114 -10 184
-56 269 -50 93 -162 173 -298 213 -50 15 -117 18 -461 21 l-403 5 0 -751z
m729 499 c148 -24 221 -105 221 -243 0 -79 -28 -138 -89 -184 -72 -55 -117
-63 -373 -63 l-228 0 0 250 0 250 203 0 c111 0 231 -5 266 -10z"/>
<path d="M41770 780 l0 -750 558 2 557 3 3 118 3 117 -431 0 -430 0 0 200 0
200 375 0 375 0 0 120 0 120 -375 0 -375 0 0 190 0 190 425 0 426 0 -3 118 -3
117 -552 3 -553 2 0 -750z"/>
</g>
</svg>
