<svg width="800" height="500" viewBox="0 0 800 500" fill="none" xmlns="http://www.w3.org/2000/svg">
  <!-- Background -->
  <rect width="800" height="500" rx="10" fill="#F5F5F5"/>
  
  <!-- Header -->
  <rect width="800" height="60" rx="10" fill="#E91E63"/>
  <rect x="20" y="20" width="120" height="20" rx="5" fill="white"/>
  <rect x="700" y="20" width="80" height="20" rx="5" fill="white"/>
  
  <!-- Sidebar -->
  <rect width="200" height="440" y="60" fill="#333333"/>
  <rect x="20" y="80" width="160" height="20" rx="5" fill="#555555"/>
  <rect x="20" y="120" width="160" height="20" rx="5" fill="#555555"/>
  <rect x="20" y="160" width="160" height="20" rx="5" fill="#555555"/>
  <rect x="20" y="200" width="160" height="20" rx="5" fill="#E91E63"/>
  <rect x="20" y="240" width="160" height="20" rx="5" fill="#555555"/>
  
  <!-- Main Content -->
  <rect x="220" y="80" width="560" height="40" rx="5" fill="#EEEEEE"/>
  
  <!-- Stats Cards -->
  <rect x="220" y="140" width="170" height="100" rx="5" fill="white"/>
  <rect x="240" y="160" width="130" height="15" rx="2" fill="#CCCCCC"/>
  <rect x="240" y="185" width="80" height="30" rx="2" fill="#E91E63"/>
  
  <rect x="410" y="140" width="170" height="100" rx="5" fill="white"/>
  <rect x="430" y="160" width="130" height="15" rx="2" fill="#CCCCCC"/>
  <rect x="430" y="185" width="80" height="30" rx="2" fill="#E91E63"/>
  
  <rect x="600" y="140" width="170" height="100" rx="5" fill="white"/>
  <rect x="620" y="160" width="130" height="15" rx="2" fill="#CCCCCC"/>
  <rect x="620" y="185" width="80" height="30" rx="2" fill="#E91E63"/>
  
  <!-- Table -->
  <rect x="220" y="260" width="560" height="220" rx="5" fill="white"/>
  <rect x="240" y="280" width="520" height="1" fill="#EEEEEE"/>
  
  <rect x="240" y="300" width="100" height="15" rx="2" fill="#CCCCCC"/>
  <rect x="360" y="300" width="100" height="15" rx="2" fill="#CCCCCC"/>
  <rect x="480" y="300" width="100" height="15" rx="2" fill="#CCCCCC"/>
  <rect x="600" y="300" width="100" height="15" rx="2" fill="#CCCCCC"/>
  
  <rect x="240" y="330" width="520" height="1" fill="#EEEEEE"/>
  
  <rect x="240" y="350" width="100" height="15" rx="2" fill="#EEEEEE"/>
  <rect x="360" y="350" width="100" height="15" rx="2" fill="#EEEEEE"/>
  <rect x="480" y="350" width="100" height="15" rx="2" fill="#EEEEEE"/>
  <rect x="600" y="350" width="60" height="20" rx="10" fill="#E91E63"/>
  
  <rect x="240" y="380" width="520" height="1" fill="#EEEEEE"/>
  
  <rect x="240" y="400" width="100" height="15" rx="2" fill="#EEEEEE"/>
  <rect x="360" y="400" width="100" height="15" rx="2" fill="#EEEEEE"/>
  <rect x="480" y="400" width="100" height="15" rx="2" fill="#EEEEEE"/>
  <rect x="600" y="400" width="60" height="20" rx="10" fill="#E91E63"/>
  
  <rect x="240" y="430" width="520" height="1" fill="#EEEEEE"/>
  
  <rect x="240" y="450" width="100" height="15" rx="2" fill="#EEEEEE"/>
  <rect x="360" y="450" width="100" height="15" rx="2" fill="#EEEEEE"/>
  <rect x="480" y="450" width="100" height="15" rx="2" fill="#EEEEEE"/>
  <rect x="600" y="450" width="60" height="20" rx="10" fill="#E91E63"/>
</svg> 