<svg width="400" height="500" viewBox="0 0 400 500" fill="none" xmlns="http://www.w3.org/2000/svg">
  <path d="M200 100C155.817 100 120 135.817 120 180C120 224.183 155.817 260 200 260C244.183 260 280 224.183 280 180C280 135.817 244.183 100 200 100Z" fill="#FFD54F"/>
  <path d="M200 260C133.726 260 80 313.726 80 380V500H320V380C320 313.726 266.274 260 200 260Z" fill="#FFD54F"/>
  <path d="M320 180C320 180 350 160 350 140C350 120 330 100 310 100" stroke="#E91E63" stroke-width="10" stroke-linecap="round"/>
  <path d="M80 180C80 180 50 160 50 140C50 120 70 100 90 100" stroke="#E91E63" stroke-width="10" stroke-linecap="round"/>
  <path d="M350 140V220C350 231.046 341.046 240 330 240H310C298.954 240 290 231.046 290 220V180" stroke="#E91E63" stroke-width="10" stroke-linecap="round"/>
  <path d="M50 140V220C50 231.046 58.9543 240 70 240H90C101.046 240 110 231.046 110 220V180" stroke="#E91E63" stroke-width="10" stroke-linecap="round"/>
  <circle cx="200" cy="160" r="100" fill="#FFECB3"/>
  <circle cx="170" cy="140" r="10" fill="#333333"/>
  <circle cx="230" cy="140" r="10" fill="#333333"/>
  <path d="M180 180C180 180 190 200 200 200C210 200 220 180 220 180" stroke="#333333" stroke-width="5" stroke-linecap="round"/>
</svg> 