<svg width="1440" height="320" viewBox="0 0 1440 320" xmlns="http://www.w3.org/2000/svg">
  <defs>
    <linearGradient id="waveGradient" x1="0%" y1="0%" x2="100%" y2="0%">
      <stop offset="0%" stop-color="#1E88E5" />
      <stop offset="25%" stop-color="#8E24AA" />
      <stop offset="50%" stop-color="#E91E63" />
      <stop offset="75%" stop-color="#F44336" />
      <stop offset="100%" stop-color="#FFC107" />
    </linearGradient>
  </defs>
  <path 
    fill="url(#waveGradient)" 
    fill-opacity="0.8" 
    d="M0,96L48,112C96,128,192,160,288,186.7C384,213,480,235,576,224C672,213,768,171,864,149.3C960,128,1056,128,1152,149.3C1248,171,1344,213,1392,234.7L1440,256L1440,320L1392,320C1344,320,1248,320,1152,320C1056,320,960,320,864,320C768,320,672,320,576,320C480,320,384,320,288,320C192,320,96,320,48,320L0,320Z">
  </path>
  <path 
    fill="url(#waveGradient)" 
    fill-opacity="0.5" 
    d="M0,192L48,176C96,160,192,128,288,138.7C384,149,480,203,576,208C672,213,768,171,864,160C960,149,1056,171,1152,186.7C1248,203,1344,213,1392,218.7L1440,224L1440,320L1392,320C1344,320,1248,320,1152,320C1056,320,960,320,864,320C768,320,672,320,576,320C480,320,384,320,288,320C192,320,96,320,48,320L0,320Z">
  </path>
  <path 
    fill="url(#waveGradient)" 
    fill-opacity="0.3" 
    d="M0,256L48,261.3C96,267,192,277,288,261.3C384,245,480,203,576,197.3C672,192,768,224,864,240C960,256,1056,256,1152,234.7C1248,213,1344,171,1392,149.3L1440,128L1440,320L1392,320C1344,320,1248,320,1152,320C1056,320,960,320,864,320C768,320,672,320,576,320C480,320,384,320,288,320C192,320,96,320,48,320L0,320Z">
  </path>
</svg> 